<svg width="40" height="40" viewBox="0 0 40 40" fill="none" xmlns="http://www.w3.org/2000/svg">
<g id="Vector">
<path id="Vector_2" d="M19.9998 16.3635V24.109H30.7634C30.2907 26.5999 28.8724 28.7091 26.7451 30.1272L33.236 35.1636C37.0178 31.6728 39.1996 26.5455 39.1996 20.4546C39.1996 19.0365 39.0724 17.6727 38.836 16.3637L19.9998 16.3635Z" fill="#4285F4"/>
<path id="Vector_3" d="M8.79111 23.8066L7.32717 24.9273L2.14526 28.9636C5.43616 35.4908 12.1811 39.9999 19.9992 39.9999C25.3991 39.9999 29.9263 38.2181 33.2355 35.1636L26.7446 30.1272C24.9628 31.3272 22.69 32.0546 19.9992 32.0546C14.7993 32.0546 10.3812 28.5455 8.79928 23.8182L8.79111 23.8066Z" fill="#34A853"/>
<path id="Vector_4" d="M2.1453 11.0364C0.781737 13.7272 0 16.7636 0 19.9999C0 23.2362 0.781737 26.2726 2.1453 28.9634C2.1453 28.9815 8.79996 23.7998 8.79996 23.7998C8.39996 22.5998 8.16353 21.3271 8.16353 19.9997C8.16353 18.6722 8.39996 17.3996 8.79996 16.1996L2.1453 11.0364Z" fill="#FBBC05"/>
<path id="Vector_5" d="M19.9996 7.96363C22.9451 7.96363 25.5633 8.98179 27.6542 10.9454L33.3814 5.21825C29.9087 1.98194 25.3997 0 19.9996 0C12.1815 0 5.43616 4.4909 2.14526 11.0364L8.79972 16.2C10.3814 11.4727 14.7997 7.96363 19.9996 7.96363Z" fill="#EA4335"/>
</g>
</svg>
