<svg width="25" height="22" viewBox="0 0 25 22" fill="none" xmlns="http://www.w3.org/2000/svg">
<path fill-rule="evenodd" clip-rule="evenodd" d="M12.5 0.302078C9.7673 0.302078 7.55204 2.51734 7.55204 5.24999C7.55204 7.98265 9.7673 10.1979 12.5 10.1979C15.2326 10.1979 17.4479 7.98265 17.4479 5.24999C17.4479 2.51734 15.2326 0.302078 12.5 0.302078ZM9.11454 5.24999C9.11454 3.38028 10.6302 1.86458 12.5 1.86458C14.3697 1.86458 15.8854 3.38028 15.8854 5.24999C15.8854 7.11971 14.3697 8.63541 12.5 8.63541C10.6302 8.63541 9.11454 7.11971 9.11454 5.24999Z" fill="#1C274C"/>
<path d="M18.75 2.38541C18.3185 2.38541 17.9687 2.73519 17.9687 3.16666C17.9687 3.59813 18.3185 3.94791 18.75 3.94791C20.1838 3.94791 21.0937 4.89138 21.0937 5.77083C21.0937 6.65028 20.1838 7.59374 18.75 7.59374C18.3185 7.59374 17.9687 7.94352 17.9687 8.37499C17.9687 8.80647 18.3185 9.15624 18.75 9.15624C20.7679 9.15624 22.6562 7.76786 22.6562 5.77083C22.6562 3.77379 20.7679 2.38541 18.75 2.38541Z" fill="#1C274C"/>
<path d="M7.03121 3.16666C7.03121 2.73519 6.68143 2.38541 6.24996 2.38541C4.23202 2.38541 2.34371 3.77379 2.34371 5.77083C2.34371 7.76786 4.23202 9.15624 6.24996 9.15624C6.68143 9.15624 7.03121 8.80647 7.03121 8.37499C7.03121 7.94352 6.68143 7.59374 6.24996 7.59374C4.81612 7.59374 3.90621 6.65028 3.90621 5.77083C3.90621 4.89138 4.81612 3.94791 6.24996 3.94791C6.68143 3.94791 7.03121 3.59813 7.03121 3.16666Z" fill="#1C274C"/>
<path fill-rule="evenodd" clip-rule="evenodd" d="M12.5 11.7604C10.6413 11.7604 8.92335 12.2612 7.64718 13.112C6.37648 13.9591 5.46871 15.2152 5.46871 16.7083C5.46871 18.2014 6.37648 19.4575 7.64718 20.3046C8.92335 21.1554 10.6413 21.6562 12.5 21.6562C14.3586 21.6562 16.0766 21.1554 17.3527 20.3046C18.6234 19.4575 19.5312 18.2014 19.5312 16.7083C19.5312 15.2152 18.6234 13.9591 17.3527 13.112C16.0766 12.2612 14.3586 11.7604 12.5 11.7604ZM7.03121 16.7083C7.03121 15.9002 7.52255 15.073 8.5139 14.4121C9.49979 13.7548 10.9068 13.3229 12.5 13.3229C14.0931 13.3229 15.5001 13.7548 16.486 14.4121C17.4774 15.073 17.9687 15.9002 17.9687 16.7083C17.9687 17.5164 17.4774 18.3437 16.486 19.0046C15.5001 19.6618 14.0931 20.0937 12.5 20.0937C10.9068 20.0937 9.49979 19.6618 8.5139 19.0046C7.52255 18.3437 7.03121 17.5164 7.03121 16.7083Z" fill="#1C274C"/>
<path d="M20.0702 13.416C20.1626 12.9945 20.5792 12.7278 21.0006 12.8202C22.0026 13.0399 22.9055 13.4368 23.5758 13.9853C24.2455 14.5334 24.7395 15.2867 24.7395 16.1875C24.7395 17.0883 24.2455 17.8416 23.5758 18.3897C22.9055 18.9382 22.0026 19.3351 21.0006 19.5548C20.5792 19.6472 20.1626 19.3805 20.0702 18.959C19.9778 18.5375 20.2445 18.121 20.6659 18.0285C21.4913 17.8475 22.1509 17.5366 22.5863 17.1804C23.0222 16.8237 23.177 16.4753 23.177 16.1875C23.177 15.8997 23.0222 15.5513 22.5863 15.1946C22.1509 14.8383 21.4913 14.5274 20.6659 14.3464C20.2445 14.254 19.9778 13.8374 20.0702 13.416Z" fill="#1C274C"/>
<path d="M3.99928 12.8202C4.42074 12.7278 4.83732 12.9945 4.92974 13.416C5.02217 13.8374 4.75543 14.254 4.33397 14.3464C3.50859 14.5274 2.84897 14.8383 2.41363 15.1946C1.9777 15.5513 1.82288 15.8997 1.82288 16.1875C1.82288 16.4753 1.9777 16.8237 2.41363 17.1804C2.84897 17.5366 3.50859 17.8475 4.33397 18.0285C4.75543 18.121 5.02217 18.5375 4.92974 18.959C4.83732 19.3805 4.42074 19.6472 3.99928 19.5548C2.99732 19.3351 2.09444 18.9382 1.42412 18.3897C0.754385 17.8416 0.260376 17.0883 0.260376 16.1875C0.260376 15.2867 0.754385 14.5334 1.42412 13.9853C2.09444 13.4368 2.99732 13.0399 3.99928 12.8202Z" fill="#1C274C"/>
</svg>
